/* XPM */
static char *ce7ac1a0f1434ab5fa73445a700aa575aeQUVTSNBVyjIO7R[] = {
/* columns rows colors chars-per-pixel */
"32 32 40 1 ",
"  c #95BAFD",
". c #97BDFC",
"X c #99BFFB",
"o c #9EC6F7",
"O c #9AC1FA",
"+ c #9CC3F9",
"@ c #9EC5F8",
"# c #A9D3EF",
"$ c #ABD5EF",
"% c #ADD7EE",
"& c #AFDBEB",
"* c #AED9EC",
"= c #B0DBEB",
"- c #B1DCEB",
"; c #B0DBEC",
": c #A0C7F6",
"> c #A3CCF3",
", c #A4CDF3",
"< c #A0C8F6",
"1 c #A3CCF4",
"2 c #A4CCF4",
"3 c #A6D0F1",
"4 c #A9D2F0",
"5 c #B6E3E7",
"6 c #B7E4E6",
"7 c #B9E6E5",
"8 c #BBE9E3",
"9 c #BCEBE3",
"0 c #BEEDE1",
"q c #BBE8E4",
"w c #B3E0E9",
"e c #B4E1E8",
"r c #C1F0DF",
"t c #C4F3DE",
"y c #C4F4DD",
"u c #C7F8DB",
"i c #C8FADA",
"p c #CBFCD9",
"a c #C0EFE0",
"s c #C0F0E0",
/* pixels */
" .XO+@o<<<1,,,,,,,,,,1<<<o@+OX. ",
".XO+oo<<1,,,33444433,,,><<oo+OX.",
"XO+o<<<,,344#$$$$$$#443,,<<<o+OX",
"O+o<<1,344$$%%****%%$$443,><<o+O",
"+@<<2,34$$%*****;****%$$43,2<<o+",
"@o<1,34$%**=--------=**%$43,><o@",
"o<<,34$%*=---eeeeee---=*%$43,1<o",
"<<,34$%*=--e55666655e--=*%$43,<<",
"<2,4$%*=-e55777777775ee-=*%$4,2<",
"<,34$*&-w567qq99998q765w-**$43,<",
"1,4$%*--567q90000009q765--*%$4,1",
",,4$*=-e57q900srrs009q75e-=*$43,",
",34%*--57q90arrtyrra09q75--*%43,",
",3$%*-e57q0aryyyyyyra0q75e-*%$3,",
",4$**-e6790sryuiiuyrs0976e-**$4,",
",4$*=-e6790ryyippiyyr0976e-=*$4,",
",4$*&-e6790rtyippiyyr0976e-&*$4,",
",4$**-e6790sryuiiuyrs09q6e-&*$4,",
",3$%*-e57800ryyyyyyr00q75e-*%$3,",
",34%*--57q90arryyrra09q75--*%43,",
",34$*=-e57q90arrrsa09q75e-=*$43,",
"1,4$%*--e67q90000009q765--*%$431",
"<,34$*=-e567q899998q765e-=*$43,<",
"<>,4$%*=-w567777777755w--*%$4,1<",
":<,34$%*=--e5566665ee--=*%$43,<<",
"o<<,34$%*&---eeeeee---&*%$43,<<o",
"@o<1,34$%**=--------=**%$43,1<o@",
"+o<<1,34$$%***&&=&***%$$43,2<<o+",
"O+o<<>,344$$%%****%%$$443,1<<o+O",
"XO@o<<<,,3444$$$$$$4443,,<<<o+OX",
".XO+oo<<1,,3344444333,,1<<o@+OX.",
" .XO+@o<<<1,,,,,,,,,,1<<<o@+OX. "
};
