/* XPM */
static char *_2041edab7b6401ec807801076b337b0EGo0rfZIb153Oe1R[] = {
/* columns rows colors chars-per-pixel */
"32 32 90 1 ",
"  c #030202",
". c #040303",
"X c #040403",
"o c #060505",
"O c #080605",
"+ c #090807",
"@ c #0A0808",
"# c #0C0B09",
"$ c #0F0C0B",
"% c #0F0D0C",
"& c #100F0D",
"* c #12100F",
"= c #151110",
"- c #171413",
"; c #1A1614",
": c #1C1716",
"> c #1E1917",
", c #1F1A19",
"< c #201B1A",
"1 c #231D1B",
"2 c #231E1D",
"3 c #251F1D",
"4 c #28211F",
"5 c #2A2321",
"6 c #2A2421",
"7 c #2D2623",
"8 c #2E2724",
"9 c #2F2825",
"0 c #302725",
"q c #332A27",
"w c #322A28",
"e c #332C28",
"r c #372E2B",
"t c #372F2C",
"y c #3B312E",
"u c #3D322F",
"i c #3D3330",
"p c #3E3431",
"a c #403732",
"s c #413833",
"d c #433835",
"f c #463B37",
"g c #473C37",
"h c #493E39",
"j c #4B3F3C",
"k c #4C403B",
"l c #4B403C",
"z c #4F433E",
"x c #534542",
"c c #564843",
"v c #574946",
"b c #594B46",
"n c #5A4C47",
"m c #5B4F49",
"M c #5D4F4A",
"N c #5F514B",
"B c #60514B",
"V c #60514C",
"C c #62544E",
"Z c #64554F",
"A c #665651",
"S c #6A5953",
"D c #6A5B54",
"F c #6D5B55",
"G c #6D5C55",
"H c #705E57",
"J c #705E58",
"K c #72605A",
"L c #74625B",
"P c #76625C",
"I c #77655E",
"U c #79665F",
"Y c #7A6660",
"T c #7F6B63",
"R c #7E6B64",
"E c #7F6C65",
"W c #836E67",
"Q c #847068",
"! c #89736B",
"~ c #8B756D",
"^ c #8D776F",
"/ c #8F7971",
"( c #937D74",
") c #957E75",
"_ c #9B837B",
"` c #9B847A",
"' c #9B837C",
"] c #9E857D",
"[ c #A0877F",
"{ c #A1887F",
/* pixels */
"@22222O######O222222oOOOOOOO>>>O",
"qWWWWW3{{{{{{1WWWWWW%{{{{{[tWWW5",
"qWWWWW3{{{{{{1WWWWWW%{{{{{[tWWW5",
"qWWWWW3{{{{{{1WWWWWW%{{{{{[rWWW5",
"%rr#777qq> ooooo o&&o&&+sxxyddd&",
"r{{5WWWWWVy{{{{{5zWWWWWf_{{{{{{p",
"r{{5WWWWWVy{{{{{5zWWWWWf_{{{{{{p",
"7]]3WWTTTx3LLFPP>yAAMAAr/''____e",
"&hhphh*kkhhkk&ddpadd=zzhjzh=ppp&",
"qWWWWWr{{{{{{5WWWWWWt{{{{{[rWWW5",
"qWWWWWr{{{{{{5WWWWWWt{{{{{[rWWW5",
"1KKJKK1^^~~^^,KKJKPP4~~!((/5UUU<",
";ZZ=xxzxxqsAAMZZrlDDCSSrvSSvMMM=",
"r{{6WWWWWVW{{{{{F/{{{{{PRWWWWWWq",
"r{{6WWWWWVW{{{{{F/{{{{{PRWWWWWWq",
"1~~>KKASSscRRITTgBEEUWWfMSSVZZZ>",
"XmMpNN&yy0qyyoppqtppoppripy5TTT1",
"&{{{{{2WWWWWW#{{{{{{#WWWWWYa{{{r",
"&{{{{{2WWWWWW#{{{{{{#WWWWWYa{{{r",
"o885pp&ffuruuovvy233.11:8q93KKK;",
"5^^;vvxnnruGGmHH1<aaraa=W))/)))6",
"y{{5WWWWWxV{{{{{wdWWWWW4`{{{{{{p",
"y{{5WWWWWxV{{{{{wdWWWWW4`{{{{{{p",
"-bb@>>#==##===88#-77#++ ikkhkkk=",
"#!!Q!!@VVBVVV+QQTWQQ;MMmMMvq___7",
"&{{{{{&WWWWWW@{{{{{{1WWWWWYy{{{r",
"&{{{{{&WWWWWW@{{{{{{1WWWWWYy{{{r",
" &&ooo $$Oooo &&@ooo.$$@*&&&ddd&",
"y{{5WWWWWNy{{{{{<pWWWWW4_{{{{{{p",
"y{{6WWWWWVy{{{{{<pWWWWW4`{{{{{{p",
"y{{6WWWWWVy{{{{{<pWWWWW4`{{{{{{p",
"%66@>>>>>& .....        1777777@"
};
