/* XPM */
static char *_7f44a7b6f4f4c00e467b42652eef030j3qFT4JSXgZmqy3P[] = {
/* columns rows colors chars-per-pixel */
"32 32 88 1 ",
"  c None",
". c #DFAB12",
"X c #EDA511",
"o c #EFA611",
"O c #EEA512",
"+ c #EDA612",
"@ c #EEA612",
"# c #EFA712",
"$ c #E0AC12",
"% c #E2AE12",
"& c #EDA811",
"* c #EDA911",
"= c #EEA811",
"- c #EFA811",
"; c #EEA911",
": c #EFA911",
"> c #EDAA11",
", c #EEAA11",
"< c #EEAB11",
"1 c #EDAC11",
"2 c #EEAC11",
"3 c #EFAE11",
"4 c #EFAF11",
"5 c #F0A611",
"6 c #F0A711",
"7 c #F1A811",
"8 c #F3AA11",
"9 c #F2A812",
"0 c #F3A912",
"q c #F4AB11",
"w c #F7AD11",
"e c #F7AE11",
"r c #F6AC12",
"t c #EFB011",
"y c #EFB111",
"u c #E9B811",
"i c #EAB911",
"p c #EFBF10",
"a c #EEBF11",
"s c #F0B511",
"d c #F0B611",
"f c #F1B611",
"g c #F1B711",
"h c #F8B011",
"j c #F9B011",
"k c #F9B111",
"l c #FAB111",
"z c #FAB211",
"x c #FBB211",
"c c #FAB311",
"v c #FBB311",
"b c #F8B012",
"n c #FAB411",
"m c #FAB511",
"M c #FAB611",
"N c #FBB611",
"B c #FAB711",
"V c #FCB411",
"C c #FCB511",
"Z c #FCB611",
"A c #FDB711",
"S c #F2BA11",
"D c #F2BC10",
"F c #F9B811",
"G c #FBB811",
"H c #FBBA11",
"J c #FBBB11",
"K c #FCB911",
"L c #FCBA11",
"P c #FBBD10",
"I c #FCBC10",
"U c #FDBC11",
"Y c #F5C210",
"T c #F5C310",
"R c #F3C610",
"E c #F6C410",
"W c #F6C510",
"Q c #F7C610",
"! c #F7C710",
"~ c #F7CA10",
"^ c #F8C910",
"/ c #F8CA10",
"( c #F8CB10",
") c #F9CB10",
"_ c #F9CC10",
"` c #F9CD10",
"' c #FACE10",
"] c #FACF10",
/* pixels */
"                                ",
"                                ",
"                                ",
"             FnxxnF             ",
"          FCx9----9xCF          ",
"         Cr-dW((((Wd-rC         ",
"        x#d(''''''''(d#x        ",
"       x#Y''''''''''''Y#x       ",
"      C#Y''''''~~''''''Y#C      ",
"     K9S''''''R%%R''''''S9K     ",
"     x-'''''''i%%i'''''''-x     ",
"     qD'''''''i%%i'''''''Dq     ",
"    n#''''''''i%%i'''''''(#n    ",
"    x-''''''''i%%i''''''''-x    ",
"    x4''''''''i%%i''''''''4x    ",
"    x4''''''''i%%i''''''''4x    ",
"    x-''''''''i%%i''''''''-x    ",
"    n#''''''''i%%i''''''''#n    ",
"    P9Y'''''''i%%i'''''''Y9U    ",
"     xt'''''''i%%i'''''''tx     ",
"     n5W''''''a..a''''''W5n     ",
"      x-'''''''aa'''''''-x      ",
"      Fr4''''''''''''''4rU      ",
"       Fr-W''''''''''W-rF       ",
"        Kx#dW''''''Wd#xK        ",
"          Cx5-tddt-5xC          ",
"            KCxrrxCK            ",
"                                ",
"                                ",
"                                ",
"                                ",
"                                "
};
