/* XPM */
static char *result[] = {
/* columns rows colors chars-per-pixel */
"32 32 123 2 ",
"   c #FB8500",
".  c #FB8601",
"X  c #FB8701",
"o  c #FB8900",
"O  c #FB8A00",
"+  c #FB8E03",
"@  c #FB8F03",
"#  c #FC8E01",
"$  c #FC8F01",
"%  c #FB8E04",
"&  c #FB8F05",
"*  c #FC8F05",
"=  c #FC9001",
"-  c #FC9101",
";  c #FC9501",
":  c #FC9601",
">  c #FB9104",
",  c #FB9304",
"<  c #FB9307",
"1  c #FC9005",
"2  c #FC9006",
"3  c #FC9106",
"4  c #FC9206",
"5  c #FD9C01",
"6  c #FD9D01",
"7  c #FC9A08",
"8  c #FC9B08",
"9  c #FC9D09",
"0  c #FC9E0A",
"q  c #FB9E0D",
"w  c #FB9F0D",
"e  c #FDA202",
"r  c #FDA302",
"t  c #FEA501",
"y  c #FEA601",
"u  c #FCA402",
"i  c #FDA402",
"p  c #FEA603",
"a  c #FEAB02",
"s  c #FEAC02",
"d  c #FEAF02",
"f  c #FFAF02",
"g  c #FCA00A",
"h  c #FCA90D",
"j  c #FCA90E",
"k  c #FCAB0E",
"l  c #FFB002",
"z  c #FEB003",
"x  c #FEB103",
"c  c #FFB103",
"v  c #FFB203",
"b  c #FFB303",
"n  c #FEB403",
"m  c #FFB403",
"M  c #FFB503",
"N  c #FFB603",
"B  c #FFB703",
"V  c #FCA510",
"C  c #FCA912",
"Z  c #FCA913",
"A  c #FBAC14",
"S  c #FDB513",
"D  c #FDB712",
"F  c #FDB613",
"G  c #FBB016",
"H  c #FBB317",
"J  c #FDB614",
"K  c #FDBA10",
"L  c #FDBB10",
"P  c #FCB813",
"I  c #FCB913",
"U  c #FDB913",
"Y  c #FEB813",
"T  c #FCB914",
"R  c #FEBA15",
"E  c #FEBB15",
"W  c #FCBC15",
"Q  c #FEBC15",
"!  c #FDBD16",
"~  c #FEBD16",
"^  c #FEBD17",
"/  c #FDBE16",
"(  c #FDBE17",
")  c #FEBE16",
"_  c #FEBE17",
"`  c #FEBF17",
"'  c #FBB418",
"]  c #FCB71A",
"[  c #FCB81A",
"{  c #FCBE18",
"}  c #FCBF18",
"|  c #FCBB1C",
" . c #FEC314",
".. c #FDC415",
"X. c #FDC515",
"o. c #FEC415",
"O. c #FEC515",
"+. c #FCC019",
"@. c #FDC91E",
"#. c #FDCB1F",
"$. c #FBC721",
"%. c #FCC520",
"&. c #FBC822",
"*. c #FCC822",
"=. c #FCC923",
"-. c #FCCA23",
";. c #FCCB23",
":. c #FCCC20",
">. c #FDCC20",
",. c #FCCD21",
"<. c #FCCD22",
"1. c #FCCE22",
"2. c #FCCF22",
"3. c #FCCB24",
"4. c #FCD024",
"5. c #FCD025",
"6. c #FCD125",
"7. c #FCD026",
"8. c #FCD126",
"9. c #FCD127",
"0. c #FCD226",
"q. c #FCD227",
"w. c None",
/* pixels */
"w.w.w.w.w.w.w.w.w.w.w.w.w.D W ) t u w.w.w.w.w.w.w.w.w.w.w.w.w.w.",
"w.w.w.w.w.w.w.w.w.w.` >.9.q.q.q.B B B B f t w.w.w.w.w.w.w.w.w.w.",
"w.w.w.w.w.w.w.w.~ 4.q.q.q.q.q.q.B B B B B B M p w.w.w.w.w.w.w.w.",
"w.w.w.w.w.w.w.2.q.q.q.q.q.q.q.q.B B B B B B B B x w.w.w.w.w.w.w.",
"w.w.w.w.w.I 5.q.q.q.q.9.@.F j g = ; 5 s B B B B B M e w.w.w.w.w.",
"w.w.w.w.r ..q.q.q.0.} >                 O i N B B B o.T w.w.w.w.",
"w.w.w.w.n B X.q.<.7                         # x B  .q.8.w.w.w.w.",
"w.w.w.v B B B L @             X X             o L q.q.q.2.w.w.w.",
"w.w.t B B B z o               ' H               + ,.q.q.q.) w.w.",
"w.w.m B B N #               2 8.q.3               7 0.q.q.6.w.w.",
"w.y B B B e                 ] q.q.[                 { q.q.q._ w.",
"w.l B B B O               < 9.q.q.q.<               > q.q.q.>.w.",
"w.B B B a         . 4 w A %.q.q.q.q.%.A w 4 .         @.q.q.q.w.",
"w.B B B 5       G 7.q.q.q.q.q.q.q.q.q.q.q.q.7.G       S q.q.q.P ",
"i B B B ;       % &.q.q.q.q.q.q.q.q.q.q.q.q.=.*       h q.q.q.E ",
"y B B B $         & *.q.q.q.q.q.q.q.q.q.q.-.1         9 q.q.q.` ",
"( q.q.q.0           2 ;.q.q.q.q.q.q.q.q.3.4           = B B B t ",
"Q q.q.q.h             q q.q.q.q.q.q.q.q.w             ; B B B r ",
"P q.q.q.S             V q.q.q.q.q.q.q.q.V             5 B B B w.",
"w.q.q.q.@.            G q.q.q.q.q.q.q.q.G             a B B B w.",
"w.:.q.q.q.>           | q.q.9.[ [ 9.q.q.|           O B B B d w.",
"w.` q.q.q.{           $.9.[ 4     * H 8.$.          r B B B y w.",
"w.w.6.q.q.0.7         Z 2             2 C         # N B B M w.w.",
"w.w./ q.q.q.1.@                                 o z B B B y w.w.",
"w.w.w.2.q.q.q.K o                             @ K B B B c w.w.w.",
"w.w.w.w.6.q.O.B x #                         8 <.q.X.B M w.w.w.w.",
"w.w.w.w.R o.B B B N i O                 , +.q.q.q.q.X.e w.w.w.w.",
"w.w.w.w.w.i M B B B B B s 6 : - g k J @.9.q.q.q.q.5.Y w.w.w.w.w.",
"w.w.w.w.w.w.w.c B B B B B B B B q.q.q.q.q.q.q.q.1.w.w.w.w.w.w.w.",
"w.w.w.w.w.w.w.w.i b B B B B B B q.q.q.q.q.q.4.) w.w.w.w.w.w.w.w.",
"w.w.w.w.w.w.w.w.w.w.y l B B B B q.q.q.9.#.! w.w.w.w.w.w.w.w.w.w.",
"w.w.w.w.w.w.w.w.w.w.w.w.w.w.r y ^ E U w.w.w.w.w.w.w.w.w.w.w.w.w."
};
