/* XPM */
static char *_0d48cd132fd4130d60bf48a2719d0f2xOH6S9nyBKklECCk[] = {
/* columns rows colors chars-per-pixel */
"32 32 89 1 ",
"  c None",
". c #067A2F",
"X c #067B2F",
"o c #067C2E",
"O c #0E6E37",
"+ c #12653D",
"@ c #10693A",
"# c #087731",
"$ c #097731",
"% c #097532",
"& c #0A7532",
"* c #0A7533",
"= c #077830",
"- c #077930",
"; c #077831",
": c #3D1C6C",
"> c #3D1D6C",
", c #3B206A",
"< c #353B67",
"1 c #343C67",
"2 c #3E396C",
"3 c #3D3B6C",
"4 c #470D77",
"5 c #450F76",
"6 c #470E77",
"7 c #4A047B",
"8 c #4B057B",
"9 c #49077A",
"0 c #4A067B",
"q c #4A077B",
"w c #4B077B",
"e c #4C037C",
"r c #4C027D",
"t c #4D007E",
"y c #4E007E",
"u c #4E007F",
"i c #4C037E",
"p c #4B067C",
"a c #4C057D",
"s c #4C047E",
"d c #470F78",
"f c #480879",
"g c #480979",
"h c #4A097A",
"j c #4B087B",
"k c #4A097B",
"l c #490F79",
"z c #4A0C7A",
"x c #480E7A",
"c c #451175",
"v c #451176",
"b c #471077",
"n c #461378",
"m c #481278",
"M c #412F6F",
"N c #175D42",
"B c #1A5944",
"V c #1E7F57",
"C c #316C5D",
"Z c #306F5C",
"A c #324364",
"S c #355E61",
"D c #008726",
"F c #01812A",
"G c #008429",
"H c #09A73D",
"J c #0AA53E",
"K c #08A93D",
"L c #00BB36",
"P c #00CA3F",
"I c #00D13D",
"U c #109644",
"Y c #109744",
"T c #129C4D",
"R c #2B8057",
"E c #2B8356",
"W c #2A8456",
"Q c #2B8456",
"! c #298D53",
"~ c #2A8854",
"^ c #10A54B",
"/ c #12A14C",
"( c #21A64B",
") c #21A74B",
"_ c #23A14D",
"` c #23A24D",
"' c #4F0181",
"] c #4E0280",
"[ c #4E0380",
/* pixels */
"                                ",
"                                ",
"                                ",
"                                ",
"      9ggtttt9ggggggggggg9      ",
"     p$-$>YH1N-----------@t     ",
"     9DGF,KLA+GGGGGGGGGGG-a     ",
"     9DGF,KLA+GGGGGGGGGGG-a     ",
"     9DGF,KLA+GGGGGGGGGGG-a     ",
"     9DGF,KLA+GGGGGGGGGGG-a     ",
"     9DGF,KLA+GGGGGGGGGGG-a     ",
"     9DGF,KLA+GGGGGGGGGGG-a     ",
"     9DGF,KLA+GGGGGGGGGGG-a     ",
"     9o.$>YH<B$$$$$$$$$$.Oa     ",
"     tv66g9gt9gtvvvvvvv6vd      ",
"       ]Z~QEMV^t!!!!!!!S]       ",
"       ]E``_3TPt```````Z]       ",
"       ]V``_3TPt```````Z]       ",
"       ]V```MTPt```````Z]       ",
"       ]V```MTPt```````Z]       ",
"       ]E```3TPt```````C]       ",
"       ]E```3TPt```````Z]       ",
"       ]E```3TPt```````Z]       ",
"       ]E```3TPt```````Z]       ",
"       ]E```3TPt```````Z]       ",
"       ]E```3TPt```````Z]       ",
"       ]Q)))3/It)))))))Z]       ",
"  t ttttlmmmplntmmmmmmmlttt t   ",
"                                ",
"                                ",
"                                ",
"                                "
};
