/* XPM */
static char *exit1700726106[] = {
/* columns rows colors chars-per-pixel */
"32 32 58 1 ",
"  c None",
". c #020100",
"X c #030200",
"o c #030201",
"O c #040201",
"+ c #050201",
"@ c #050301",
"# c #060301",
"$ c #070301",
"% c #0A0503",
"& c #0A0603",
"* c #080504",
"= c #0A0604",
"- c #0E0804",
"; c #0F0905",
": c #2F1706",
"> c #321707",
", c #371B08",
"< c #381B08",
"1 c #3D2516",
"2 c #47230C",
"3 c #52280E",
"4 c #472816",
"5 c #482817",
"6 c #4D2D1D",
"7 c #723610",
"8 c #723713",
"9 c #783911",
"0 c #7A3A11",
"q c #7F3D12",
"w c #4D3124",
"e c #503121",
"r c #663F2B",
"t c #673F2B",
"y c #6A412D",
"u c #6B422D",
"i c #7A4527",
"p c #6C4430",
"a c #6D4430",
"s c #7D503A",
"d c #7E513B",
"f c #823E12",
"g c #844116",
"h c #8C4314",
"j c #9F4C16",
"k c #994A19",
"l c #A44E17",
"z c #A95118",
"x c #BD6B3D",
"c c #C25E20",
"v c #D56723",
"b c #A76645",
"n c #A86645",
"m c #B47353",
"M c #D48762",
"N c #D58863",
"B c #EA9062",
"V c #EB966D",
/* pixels */
"      .##################.      ",
"      :zzzzzzzzzzzzzzzzzl>      ",
"      :q#%%%%%%%%%%%=%=#f>      ",
"      :71VVVVVVVVVVVVVB49>      ",
"      :71VmssssdsssssmB49>      ",
"      :71Ve38887878826B49>      ",
"      :71Vwkvvvvvvvvg6B49>      ",
"      :71Vekvvvvvvvvg6B49>      ",
"      :71Vekvvvvvvvvg6B49>      ",
"      :71Vbcvvvvvvvvg6B49>      ",
"      :71Vncvvvvvvvvg6B49>      ",
"      :71Vekvvvvvvvvg6B49>      ",
"      :71Vekvvvvvvvvg6B49>      ",
"      :71Vekvvvvvvvvg6B49>      ",
"      :71Vekvvvvvvvvg6B49>      ",
"      :71Va;;;;;;;;;-uB59>      ",
"      :71VVVVVVVVVVMswy49>      ",
"      :71VVVVVVVVVVNswr49>      ",
"      <71Va;;;;;;;;;-uB49>      ",
"      z71Vekvvvvvvvvg6B49>      ",
"      ,71Vekvvvvvvvvg6B49>      ",
"      :71Vekvvvvvvvvg6B49>      ",
"      :71Vekvvvvvvvvg6B59>      ",
"      :71Vekvvvvvvvvg6Bxl>      ",
"      :71Vekvvvvvvvvg6Bih>      ",
"      :71Vekvvvvvvvvg6B49>      ",
"      :71Vekvvvvvvvvg6B49>      ",
"      :71Vekvvvvvvvvg6B49>      ",
"      :71Vw38888788826B49>      ",
"      :71VmsssssdssssmB49>      ",
"      :71VVVVVVVVVVVVVB49>      ",
"      .#.*************=##.      "
};
