/* XPM */
static char *_596e861152f458fbca86e376fc624893Adj63OHuD9Tk2gk[] = {
/* columns rows colors chars-per-pixel */
"32 32 158 2 ",
"   c None",
".  c #010101",
"X  c #0A0206",
"o  c #030709",
"O  c #0D0B0A",
"+  c #080A0A",
"@  c #14050C",
"#  c #16160E",
"$  c #070F13",
"%  c #1C0710",
"&  c #1F0812",
"*  c #100E14",
"=  c #141411",
"-  c #1B1612",
";  c #151A1C",
":  c #181818",
">  c #261E09",
",  c #240915",
"<  c #220C18",
"1  c #310D1C",
"2  c #251F19",
"3  c #26211C",
"4  c #2D261F",
"5  c #0D1A22",
"6  c #0B1E2C",
"7  c #151926",
"8  c #3A0E21",
"9  c #3E1123",
"0  c #1F2222",
"q  c #1B2C35",
"w  c #102A3F",
"e  c #182C3A",
"r  c #182838",
"t  c #2D2721",
"y  c #262828",
"u  c #382F27",
"i  c #38252E",
"p  c #32312F",
"a  c #202A30",
"s  c #3A3631",
"d  c #43360E",
"f  c #493E16",
"g  c #421126",
"h  c #451228",
"j  c #4C142C",
"k  c #52142F",
"l  c #5D1736",
"z  c #561834",
"x  c #661C3C",
"c  c #6A1B3E",
"v  c #49262E",
"b  c #43382E",
"n  c #4E2C32",
"m  c #492E3A",
"M  c #473935",
"N  c #64213B",
"B  c #4E4012",
"V  c #695514",
"C  c #594A3C",
"Z  c #0E2E46",
"A  c #142E47",
"S  c #113854",
"D  c #213B4D",
"F  c #233E52",
"G  c #6F1C40",
"H  c #721D42",
"J  c #7B1E46",
"K  c #7B1F48",
"L  c #4C3B43",
"P  c #722244",
"I  c #7D2049",
"U  c #7A2047",
"Y  c #264256",
"T  c #264459",
"R  c #164467",
"E  c #1A4D74",
"W  c #1A517B",
"Q  c #2B4C64",
"!  c #355E7C",
"~  c #645344",
"^  c #6C5B49",
"/  c #715E4D",
"(  c #73604F",
")  c #766451",
"_  c #7C6754",
"`  c #7B6C58",
"'  c #646465",
"]  c #887019",
"[  c #87234F",
"{  c #8D2352",
"}  c #922554",
"|  c #9D285A",
" . c #A5295F",
".. c #A62960",
"X. c #AD2C65",
"o. c #BC2F6D",
"O. c #B42D68",
"+. c #C0306F",
"@. c #C33272",
"#. c #CB3376",
"$. c #D3357B",
"%. c #DA367E",
"&. c #DA387F",
"*. c #826F5B",
"=. c #89735D",
"-. c #8D7B64",
";. c #987F68",
":. c #927A63",
">. c #F4C72F",
",. c #FED332",
"<. c #9A8069",
"1. c #A3886F",
"2. c #A38C72",
"3. c #AC8F75",
"4. c #A59276",
"5. c #AD9277",
"6. c #B1957A",
"7. c #B99A7E",
"8. c #1C5987",
"9. c #205886",
"0. c #1F6B9D",
"q. c #376382",
"w. c #226DA4",
"e. c #DE3780",
"r. c #DE3982",
"t. c #E03982",
"y. c #E13782",
"u. c #7C8280",
"i. c #2782C3",
"p. c #2E95DF",
"a. c #2E95E0",
"s. c #309CEC",
"d. c #33A6FC",
"f. c #34AAFD",
"g. c #32A3F1",
"h. c #BD9E81",
"j. c #BCA385",
"k. c #A9AFAD",
"l. c #C2A284",
"z. c #CBAC8C",
"x. c #C6AB8A",
"c. c #D1AE8E",
"v. c #CFB191",
"b. c #D4B392",
"n. c #DAB695",
"m. c #DEBB99",
"M. c #E0BC99",
"N. c #E7C19E",
"B. c #ECC6A2",
"V. c #ECCAA4",
"C. c #F2CCA7",
"Z. c #FED5AE",
"A. c #FFD7B0",
"S. c #FDD8B0",
"D. c #C0C6C5",
"F. c #D6DCDA",
"G. c #E6EDEB",
"H. c #E9F0EE",
/* pixels */
"                                                                ",
"                                                                ",
"                          @ & , , , @                           ",
"                    @ l | o.$.#.@.$.o. .x %                     ",
"                  l @.e.%.%.U m L x $.%.e.#.c X                 ",
"                H %.%.%.%. .' G.H.u.{ %.%.%.e.{ X               ",
"              h %.%.%.%.%.J k.F.F.D.x e.%.%.%.e.c               ",
"              ..%.%.$.X.G 8 i m m i 1 c  .#.%.%.+.X             ",
"            . $.$.{ h x  .@.r.t.t.t.#.X.H h K #.y.X             ",
"              o.k I $.&.&.&.&.&.&.&.&.&.&.&.} g @.X             ",
"              g 8 $.&.$.O.} P N N P { X.#.&.r.j h               ",
"              o $ } P n ^ 2.x.v.b.z.4.) n x | * +               ",
"              7 Q 5 ~ A.V.C.Z.Z.Z.Z.C.V.S.` 5 Y e               ",
"              3 ; T / Z.~ ( Z.Z.Z.Z.=.C N.-.T ; t               ",
"              l.~ ; 6.Z.j.N.Z.Z.Z.Z.C.6.Z.z.0 b n.+             ",
"              <.` =.Z.Z.2.n.l./ / 3.B.:.Z.Z.4.~ 7.              ",
"              - C ) Z.Z.h.2.u 7.c.t 1.6.Z.Z.-.M 2               ",
"                  b Z.n.q Q F e r F Q e h.A.~                   ",
"                  . l.b.a Y D q.! T F q h.m.O                   ",
"                    - x.n.3.s p p y 2.z.m.4                     ",
"                      O ;.Z.Z.A.Z.Z.Z.5.=                       ",
"                          - ~ _ _ ^ 3                           ",
"                            ~ M.M.*.                            ",
"                          . b.Z.Z.B.O                           ",
"                    . R S H v ^ / v U A W o                     ",
"                  @ < s.i.P &.@.@.$.} w.f.7 %                   ",
"                c $.J r f 9 @.@.@.@.k d q l $.I .               ",
"              j $.&.[ V ,.> E E E W = >.] c %.&.x               ",
"              } &.&.e = B 6 i.d.d.a.6 f # w #.&.X.              ",
"            . @.r.X.9.R 8.Z p.f.f.g.Z 8.S 0.} r.$.X             ",
"                                                                ",
"                                                                "
};
