/* XPM */
static char *_bbe2b258fef47e099fbd04c93f10115LaIiG87UTocK7TUt[] = {
/* columns rows colors chars-per-pixel */
"32 32 146 2 ",
"   c None",
".  c #EC1A25",
"X  c #EC1B26",
"o  c #ED1C27",
"O  c #ED1C28",
"+  c #ED1D28",
"@  c #ED1D29",
"#  c #ED1E29",
"$  c #ED1F2A",
"%  c #ED1F2B",
"&  c #F01E29",
"*  c #ED202B",
"=  c #EF202B",
"-  c #ED202C",
";  c #EC212C",
":  c #ED212C",
">  c #ED212D",
",  c #EE212C",
"<  c #EF212C",
"1  c #EF212D",
"2  c #ED222C",
"3  c #ED222D",
"4  c #ED232D",
"5  c #ED232E",
"6  c #EE232E",
"7  c #ED242E",
"8  c #ED252E",
"9  c #ED242F",
"0  c #ED252F",
"q  c #F0212C",
"w  c #F1212C",
"e  c #F2212D",
"r  c #ED2832",
"t  c #ED2932",
"y  c #ED2A32",
"u  c #ED2A34",
"i  c #ED2C36",
"p  c #ED2D37",
"a  c #ED2F39",
"s  c #EE2E39",
"d  c #F12832",
"f  c #ED323C",
"g  c #EE353F",
"h  c #EE3741",
"j  c #EE3841",
"k  c #EE3943",
"l  c #EF3D41",
"z  c #EE4049",
"x  c #EE424B",
"c  c #EE424C",
"v  c #F0494A",
"b  c #EE4952",
"n  c #EE4A53",
"m  c #EE4D55",
"M  c #EF535A",
"N  c #EF535B",
"B  c #EF545C",
"V  c #EF565E",
"C  c #EE5A61",
"Z  c #EF5A62",
"A  c #EF5F67",
"S  c #F65E66",
"D  c #EF6269",
"F  c #F0656C",
"G  c #F47267",
"H  c #EF6F76",
"J  c #F07279",
"K  c #F0767C",
"L  c #F68677",
"P  c #F78677",
"I  c #F6897A",
"U  c #F68D7C",
"Y  c #F08186",
"T  c #F1868B",
"R  c #F79A86",
"E  c #F79E89",
"W  c #F38D93",
"Q  c #F19398",
"!  c #F1959A",
"~  c #F1979C",
"^  c #F1999D",
"/  c #FAA991",
"(  c #F8AB92",
")  c #F9B096",
"_  c #F9B499",
"`  c #F1A1A5",
"'  c #F1A2A5",
"]  c #FBC8A7",
"[  c #FBCAA9",
"{  c #FACEAC",
"}  c #FBCFAD",
"|  c #FCCFAC",
" . c #FCCFAD",
".. c #FCCFAE",
"X. c #FCD0AE",
"o. c #FDD0AE",
"O. c #FCD1AE",
"+. c #FDD1AF",
"@. c #FCD2AF",
"#. c #FDD2AF",
"$. c #FDD1B0",
"%. c #FCD3B0",
"&. c #FDD3B1",
"*. c #FED4B1",
"=. c #F3BEC0",
"-. c #F3C0C2",
";. c #F3C1C3",
":. c #F4C0C1",
">. c #F3C5C7",
",. c #F3C7C9",
"<. c #F3C8C9",
"1. c #F2C8CA",
"2. c #F3C9CA",
"3. c #F3CCCD",
"4. c #F3D0D1",
"5. c #F6D3D3",
"6. c #F3D5D5",
"7. c #F5D6D6",
"8. c #F4DADA",
"9. c #F4DBDB",
"0. c #F4DDDD",
"q. c #F4E3E3",
"w. c #F4E5E5",
"e. c #F5E5E5",
"r. c #F4E6E5",
"t. c #F8E6E6",
"y. c #F4E9E9",
"u. c #F4EAEA",
"i. c #F4EBEA",
"p. c #F4EBEB",
"a. c #F4ECEC",
"s. c #F4EDED",
"d. c #F7EEED",
"f. c #F9E8E9",
"g. c #F6F0F0",
"h. c #F5F2F1",
"j. c #F4F3F2",
"k. c #F5F5F4",
"l. c #F5F6F5",
"z. c #F5F7F6",
"x. c #F6F7F6",
"c. c #F5F8F7",
"v. c #F6F8F7",
"b. c #F8F8F7",
"n. c #F5FAF9",
"m. c #F6FBFB",
/* pixels */
"                                                                ",
"                                                                ",
"                                                                ",
"                            < < < <                             ",
"                      q q q < < < < < q < <                     ",
"                  < < < < < < * * < < < < < q                   ",
"                < < < < * < x B B b u $ < < < q                 ",
"              < < < < $ m -.s.n.n.k.6.J < < < < q               ",
"            W * < < * D s.k.k.k.k.k.k.k.! < < < * S             ",
"            t.h < * x y.k.k.k.k.k.k.k.k.k.H < < $ -.5.          ",
"          7.n.N * $ ` k.k.k.k.k.k.k.k.k.k.0.7 < < y.s.          ",
"          g.n.A $ r 4.k.k.k.k.k.k.k.k.k.k.k.c < i y.c.:.        ",
"          b.n.B * f 0.k.k.k.k.k.k.k.k.k.k.k.Z < 7 y.k.f.        ",
"        1.k.y.k < a 8.k.k.k.k.k.k.k.k.k.k.k.N < o 1.k.r.        ",
"        q.c.` $ < < ,.k.k.k.k.k.k.k.k.k.k.k.g < * F g.g.        ",
"        k.>.i < < $ Y c.k.k.k.k.k.k.k.k.k.=.< < < $ ^ k.        ",
"        ~ a * < < < u 1.k.k.k.k.k.k.k.k.y.b < < < < < T         ",
"          < < < < < * k ,.k.k.k.k.k.k.r.Z * < < < < < &         ",
"          < < < < < < * r K 3.r.r.8.Q k * < < < < < <           ",
"            d 7 * * < < < * X $ $ X $ < < < * $ < <             ",
"              _ L v r 7 < < * * * * * < 7 r l G (               ",
"              { +.+.[ ) E U L L L L I R ( ] %.X.+.              ",
"              { +. . . . . . . . . . . . . . . .&.              ",
"                &. . . . . . . . . . . . . . . .*.              ",
"                +. . . . . . . . . . . . . . .+.                ",
"                  +. . . . . . . . . . . . . . .                ",
"                     . . . . . . . . . . . . .                  ",
"                         .{ {  . .{ { {                         ",
"                                                                ",
"                                                                ",
"                                                                ",
"                                                                "
};
