/* XPM */
static char *_4150f7972ef43b09dbbefd0727fb42dBXbqEZrGcIEPPAg0[] = {
/* columns rows colors chars-per-pixel */
"32 32 166 2 ",
"   c None",
".  c #563B3F",
"X  c #2F3C43",
"o  c #323E44",
"O  c #3C3C41",
"+  c #543B40",
"@  c #354046",
"#  c #3F4147",
"$  c #374248",
"%  c #3A454B",
"&  c #3D484E",
"*  c #3F4A50",
"=  c #49494E",
"-  c #4A4449",
";  c #514448",
":  c #57494E",
">  c #5A474A",
",  c #434E53",
"<  c #4F4A50",
"1  c #465156",
"2  c #495256",
"3  c #475358",
"4  c #4B555A",
"5  c #4E595E",
"6  c #505056",
"7  c #5C565B",
"8  c #535B5D",
"9  c #595C5F",
"0  c #64494D",
"q  c #6C4447",
"w  c #7E4043",
"e  c #70464A",
"r  c #7B4549",
"t  c #674E52",
"y  c #794F53",
"u  c #6C5255",
"i  c #655A5E",
"p  c #68575B",
"a  c #775054",
"s  c #7C575A",
"d  c #715A5E",
"f  c #545D62",
"g  c #5B5E61",
"h  c #635E62",
"j  c #695D61",
"k  c #576165",
"l  c #596166",
"z  c #5C666A",
"x  c #63696C",
"c  c #696C6C",
"v  c #646766",
"b  c #636C71",
"n  c #6C7274",
"m  c #6D767A",
"M  c #757676",
"N  c #787877",
"B  c #70787C",
"V  c #7D7C79",
"C  c #873437",
"Z  c #9F3738",
"A  c #98393A",
"S  c #9A3436",
"D  c #BF2E2E",
"F  c #B52F30",
"G  c #AB3435",
"H  c #AE3C3D",
"J  c #B73031",
"K  c #BE3131",
"L  c #B43838",
"P  c #BC3B3B",
"I  c #C13434",
"U  c #CC3737",
"Y  c #C43A3A",
"T  c #CB3C3C",
"R  c #D53C3C",
"E  c #A63E40",
"W  c #804549",
"Q  c #854B4E",
"!  c #964446",
"~  c #8E5B5D",
"^  c #845659",
"/  c #975456",
"(  c #A54345",
")  c #A94C4D",
"_  c #B24344",
"`  c #BB4444",
"'  c #BB4748",
"]  c #BD4B4C",
"[  c #B64A4B",
"{  c #A75457",
"}  c #B75051",
"|  c #B75757",
" . c #815D60",
".. c #C54545",
"X. c #CC4444",
"o. c #C84748",
"O. c #C54848",
"+. c #CE4848",
"@. c #D34343",
"#. c #D84747",
"$. c #D54D4D",
"%. c #D94C4C",
"&. c #C15556",
"*. c #CC5253",
"=. c #D45454",
"-. c #DA5252",
";. c #84827E",
":. c #757C81",
">. c #7C8487",
",. c #7D8488",
"<. c #858481",
"1. c #898682",
"2. c #858B8F",
"3. c #8D8985",
"4. c #9A938D",
"5. c #8D9397",
"6. c #9E9792",
"7. c #91979A",
"8. c #969C9F",
"9. c #A19A93",
"0. c #ADA39A",
"q. c #B0A69C",
"w. c #B5A99F",
"e. c #999EA1",
"r. c #9CA1A4",
"t. c #A0A6A8",
"y. c #A8ACAF",
"u. c #A4A9AB",
"i. c #B9AEA4",
"p. c #B4AAA1",
"a. c #BDB1A6",
"s. c #AAAEB0",
"d. c #ADB1B3",
"f. c #B1B5B7",
"g. c #B3B7B9",
"h. c #B9BDBF",
"j. c #C5B6AB",
"k. c #C7B8AD",
"l. c #D7C7B8",
"z. c #DCCABB",
"x. c #D7C5B8",
"c. c #E1CDBE",
"v. c #BBBFC0",
"b. c #C3C6C6",
"n. c #CCCDCE",
"m. c #D2D4D5",
"M. c #D7D9D9",
"N. c #D9DADA",
"B. c #E5D0C1",
"V. c #EBD5C5",
"C. c #EED8C7",
"Z. c #EED9C8",
"A. c #EBD7C9",
"S. c #F3DCCB",
"D. c #F7E0CD",
"F. c #FAE1CE",
"G. c #F6E1D0",
"H. c #FDE5D3",
"J. c #E6E6E6",
"K. c #E3E3E4",
"L. c #EBECEC",
"P. c #EDEDED",
"I. c #E8E9E9",
"U. c #F3F3F3",
"Y. c gray95",
"T. c #F4F4F4",
/* pixels */
"                        5 5 5 5 4 4 3 3                         ",
"                  f f f ^ s 7 5 4 7 a y 2 3 ,                   ",
"              f f d &.*.s 5 b ,.>.x 4 a o.' t , ,               ",
"            k h &.-.&.f 2.M.T.T.T.T.m.,.2 ' @.` < ,             ",
"          k ^ -.-.*.f s.T.T.T.T.T.T.T.U.u., o.@.@.e &           ",
"        l ~ -.-.-.i 8.T.T.T.T.T.T.T.U.U.U.5.: @.R R r &         ",
"      l  .-.-.-.| z L.T.T.T.T.T.T.T.U.U.U.I.5 ` R R R q %       ",
"    k l =.-.-.-.~ 7.T.T.T.T.T.T.T.U.U.U.U.U.2.W R R R T % %     ",
"    l z | -.-.-.i f.T.T.T.T.T.T.T.U.U.U.U.U.y.: R R R E 3 %     ",
"  k n s.j -.-.-.9 h.T.T.T.T.T.T.U.U.U.U.U.U.g.= R R R ; n.b $   ",
"  l g.N.f -.-.-.d s.T.T.T.T.T.T.U.U.U.U.U.U.t.0 R R U % P.m.$   ",
"  z J.P.f *.-.-./ ,.T.T.T.T.T.U.U.U.U.U.U.U.B ! R R Y % U.J.&   ",
"f >.T.P.f =.-.-.*.8 m.T.T.T.T.U.U.U.U.U.U.m.& Y R R T % J.N.,.@ ",
"k e.T.N.f -.-.%.%.^ m P.T.T.U.U.U.U.U.U.P.x r R R R R % N.N.d.@ ",
"k f.T.d.j -.-.%.%.$.p :.J.T.U.U.U.U.U.K.m : R R R R U ; b.N.b.o ",
"k v.U.m { -.%.%.%.%.$.u f r.m.L.L.m.e.4 0 R R R U I I A m N.n.o ",
"k h.d.g -.-.%.%.%.%.%.%.[ t 3 3 , , 0 _ R R U I I I I I # b.n.o ",
"f ,.k } $.-.%.%.%.%.%.%.#.#.#.X.X.@.R T Y I I I I I I K G & 7.o ",
"f f { O.O.o.o.o.+.+.@.@.@.@.X.T T Y Y Y I I I I I I K K D S o o ",
"f h O.O.O.o.o.o.o.......` _ ( ! ! ( H P I I I I I I K D D D . X ",
"  f ] O.o.o.o.o...' Q 6 3 l c N N c 8 * = w L I I I K D D D o   ",
"  f d O.o.o...' u 4 ;.p.z.V.C.C.C.C.S.c.w.V & > J K D D D C o   ",
"    8 / o...) 4 <.x.V.B.j.C.C.C.Z.S.S.k.C.S.z.V $ Z D D F o     ",
"      5 ^ ) 5 9.V.V.V.6.3 l.C.Z.S.S.l.& 9.S.S.S.0.% G J O o     ",
"        5 5 n Z.V.V.V.<., a.Z.S.S.S.a.& ;.S.S.F.F.g + o o       ",
"          4 l H.S.V.Z.V , i.S.S.S.S.i.% V S.F.F.F., @           ",
"            4 A.H.S.C.1., j.S.S.S.S.j.% 1.F.F.F.B.o             ",
"            3 a.H.H.S.i.f V.S.S.S.S.C.4 a.F.H.F.q.o             ",
"            3 x G.H.H.S.S.S.S.S.S.S.D.F.F.H.F.S.8 o             ",
"              3 M z.H.H.S.S.S.S.S.D.F.F.H.H.l.v o               ",
"                , , x 3.9.0.q.i.i.q.0.4.;.9 @ @                 ",
"                    , , * * & & % % % $ $ @                     "
};
