/* XPM */
static char *_46567d183f54ac9e05e9f1f5097c08bRFe3uKKlcDvdZNXd[] = {
/* columns rows colors chars-per-pixel */
"32 32 77 1 ",
"  c None",
". c black",
"X c #020202",
"o c gray1",
"O c #080404",
"+ c #0A0505",
"@ c #090909",
"# c #0A0908",
"$ c #0B0909",
"% c gray4",
"& c #0B0B0B",
"* c #0C0C0C",
"= c #0C0C0D",
"- c #0F0D0C",
"; c #160A0B",
": c #13100F",
"> c #141210",
", c #151210",
"< c #161311",
"1 c #181513",
"2 c #191614",
"3 c #1C1816",
"4 c #1F1B18",
"5 c #201C19",
"6 c #25211D",
"7 c #27221E",
"8 c #3E1E20",
"9 c #2A2521",
"0 c #2A2A2A",
"q c #2A2A2B",
"w c #322C27",
"e c #332C27",
"r c #332D27",
"t c #3D352F",
"y c #303031",
"u c #323132",
"i c #333234",
"p c #333335",
"a c #3E3530",
"s c #3F3630",
"d c #3A393B",
"f c #3C3B3D",
"g c #512729",
"h c #51272A",
"j c #5C2C2F",
"k c #423933",
"l c #493F38",
"z c #493F39",
"x c #693235",
"c c #77393D",
"v c #4B413A",
"b c #4F443D",
"n c #4E463F",
"m c #50453D",
"M c #50453E",
"N c #51463E",
"B c #544941",
"V c #5D5148",
"C c #5F5249",
"Z c #60534A",
"A c #61534A",
"S c #61544A",
"D c #61544B",
"F c #62544B",
"G c #63554C",
"H c #6A5E55",
"J c #73665C",
"K c #74675C",
"L c #A44E54",
"P c #A65055",
"I c #A75056",
"U c #D4656C",
"Y c #D8676E",
"T c #D8676F",
"R c #F0727B",
"E c #F4747C",
"W c #F5757D",
/* pixels */
"                                ",
"                                ",
"                                ",
"                                ",
"               .......          ",
"               .gILLI8          ",
"               .cWRRWj          ",
"               .xTUUTg          ",
"               .+;;;;+          ",
"               ..               ",
"               ..               ",
"               ..               ",
"      .<<<<<<<<<<<<<<<<<<-.     ",
"      -HJJJJJJJJJJJJJJJJKb.     ",
"      .233333333333333333:.     ",
"       .1aaaaaaaaaaaaaa5.       ",
"       .6GZZZZZZZZZZZZFw.       ",
"       .6FZZZZFVVFZZZZFw.       ",
"       .6FZZZVw<<wVZZZFw.       ",
"       .6FZZF6-qq-6FZZFw.       ",
"       .6FZZB%iffi%BZZFw.       ",
"       .6FZZb%dffd%vZZFw.       ",
"       .6FZZm-dffd%zZZFw.       ",
"       .6FZZm-dffd%zZZFw.       ",
"       .6FZZm-dffd%zZZFw.       ",
"       .6FZZm-dffd%zZZFw.       ",
"       .6FZZm-dffd%zZZFw.       ",
"       .4mmmk%uuuu%tmmm9.       ",
"    ........................    ",
"                                ",
"                                ",
"                                "
};
