/* XPM */
static char *_bc9e70e0aea460dbcbf283a2e75cc5cvb764ntyrMFevaBX[] = {
/* columns rows colors chars-per-pixel */
"32 32 91 1 ",
"  c None",
". c #373737",
"X c #383737",
"o c #3A3837",
"O c #3A3937",
"+ c #393939",
"@ c #3C3938",
"# c #3D3A38",
"$ c #3D3A39",
"% c #3E3A38",
"& c #3F3A38",
"* c #3F3B38",
"= c #3E3B39",
"- c #3E3B3A",
"; c #403B39",
": c #423C39",
"> c #443D39",
", c #443D3A",
"< c #453D3A",
"1 c #473F3A",
"2 c #483F3A",
"3 c #493F3A",
"4 c #493F3B",
"5 c #4A3F3B",
"6 c #4A403A",
"7 c #4A403B",
"8 c #4B403B",
"9 c #4B413B",
"0 c #4C403B",
"q c #4C413B",
"w c #4D413B",
"e c #4E413B",
"r c #4E423B",
"t c #4F423B",
"y c #4F423C",
"u c #50423C",
"i c #51433C",
"p c #50433D",
"a c #52433C",
"s c #52443C",
"d c #54443C",
"f c #55453C",
"g c #54443D",
"h c #55453D",
"j c #56453D",
"k c #57463D",
"l c #5C483E",
"z c #5D493E",
"x c #5E493E",
"c c #5F4A3E",
"v c #604B3F",
"b c #614B3F",
"n c #624B3F",
"m c #634B40",
"M c #634C40",
"N c #644C40",
"B c #654C40",
"V c #664D40",
"C c #674D40",
"Z c #694E41",
"A c #6B4F41",
"S c #6C5041",
"D c #6D5041",
"F c #6D5042",
"G c #6E5142",
"H c #6F5142",
"J c #705242",
"K c #745443",
"L c #765443",
"P c #775443",
"I c #765543",
"U c #775543",
"Y c #765544",
"T c #795644",
"R c #7B5644",
"E c #7C5744",
"W c #7D5744",
"Q c #7E5845",
"! c #7F5945",
"~ c #805945",
"^ c #815945",
"/ c #815A45",
"( c #825A46",
") c #835A46",
"_ c #835B46",
"` c #845B46",
"' c #855B46",
"] c #865B46",
"[ c #865C46",
"{ c #875C46",
"} c #885D47",
/* pixels */
"                                ",
"                                ",
"                                ",
"                                ",
"     -qqq8oqqqqqqqqqq:,qqq,+    ",
"    -U{{{^:}{{{{{{{{{xB{{{^u    ",
"    q{```!:{`````````xB````D.   ",
"    q{```^:{`````````xB````DX   ",
"    -ggggs-gggggugggg,8gggg8.   ",
"    8TUUUUUUUUUDuUUUUUUUUUUB.   ",
"    Y``````````Ug``````````DX   ",
"    m``````````Ug``````````DX   ",
"    q`^^^^^^^^^Ug^^^^^^^^^^DX   ",
"    -uuuuyquuuuq:uuuuqyuuuu3.   ",
"    3UUUUJ;UUUUUUUUUUgxUUUUv.   ",
"    q{```!:{`````````xB````DX   ",
"    q{```!:{`````````xB````DX   ",
"    q`^^^!:`^^^^``^^^xB^^^^DX   ",
"    -33333o3333333333;:3333,.   ",
"    8ETTTTTTTTTDuETTTTTETTTB.   ",
"    q{`````````Ug``````````DX   ",
"    q{`````````Ug``````````DX   ",
"    q{`````````Ug``````````DX   ",
"    -q8888q8888,-8888qq8888,.   ",
"    q^^^^E:`^^^^^^^^^xM^^^^ZX   ",
"    q{```!:{`````````xB````DX   ",
"    ,^```!:{`````````xB````v    ",
"    +uDDDZ-DDDDDDDDDDsgDDDv-    ",
"      XXXX.XXXXXXXXXX..XXX      ",
"                                ",
"                                ",
"                                "
};
